<svg width="64" height="64" viewBox="0 0 64 64" fill="none" xmlns="http://www.w3.org/2000/svg">
  <defs>
    <linearGradient id="coat-gradient" x1="0%" y1="0%" x2="100%" y2="100%">
      <stop offset="0%" style="stop-color:#3498DB;stop-opacity:1" />
      <stop offset="100%" style="stop-color:#2980B9;stop-opacity:1" />
    </linearGradient>
  </defs>
  <!-- Щит -->
  <path d="M32 4 L52 12 L52 32 C52 48 32 60 32 60 C32 60 12 48 12 32 L12 12 Z" fill="url(#coat-gradient)" stroke="#F39C12" stroke-width="2"/>
  
  <!-- Стилизованная рыба (символ Волги) -->
  <path d="M20 28 C24 24 28 24 32 28 C36 24 40 24 44 28 C40 32 36 32 32 36 C28 32 24 32 20 28 Z" fill="white" opacity="0.9"/>
  
  <!-- Корона -->
  <path d="M26 16 L30 20 L32 16 L34 20 L38 16 L36 24 L28 24 Z" fill="#F39C12"/>
  
  <!-- Текст -->
  <text x="32" y="52" font-family="Arial, sans-serif" font-size="6" fill="#F39C12" text-anchor="middle" font-weight="bold">
    ГЕРБ
  </text>
</svg>
